<mxfile host="65bd71144e">
    <diagram id="VVMdM74mDpFCBubdMjJu" name="Page-1">
        <mxGraphModel dx="857" dy="629" grid="1" gridSize="10" guides="1" tooltips="1" connect="1" arrows="1" fold="1" page="1" pageScale="1" pageWidth="850" pageHeight="1100" background="#ffffff" math="0" shadow="0">
            <root>
                <mxCell id="0"/>
                <mxCell id="1" parent="0"/>
                <mxCell id="AyxNyklTCNKdajwyH18D-1" value="Application" style="rounded=0;whiteSpace=wrap;html=1;fillColor=#f5f5f5;strokeColor=#666666;fontColor=#000000;verticalAlign=top;fontSize=12;spacing=1;fontStyle=1" parent="1" vertex="1">
                    <mxGeometry x="120" y="320" width="480" height="160" as="geometry"/>
                </mxCell>
                <mxCell id="AyxNyklTCNKdajwyH18D-2" value="Layer3" style="rounded=0;whiteSpace=wrap;html=1;fillColor=#e1d5e7;strokeColor=#9673a6;verticalAlign=top;fontSize=12;spacing=1;fontStyle=1;fontColor=#000000;" parent="1" vertex="1">
                    <mxGeometry x="120" y="690" width="480" height="70" as="geometry"/>
                </mxCell>
                <mxCell id="AyxNyklTCNKdajwyH18D-3" value="Layer4" style="rounded=0;whiteSpace=wrap;html=1;fillColor=#d5e8d4;strokeColor=#82b366;verticalAlign=top;fontSize=12;spacing=1;fontStyle=1;fontColor=#000000;" parent="1" vertex="1">
                    <mxGeometry x="120" y="610" width="480" height="70" as="geometry"/>
                </mxCell>
                <mxCell id="AyxNyklTCNKdajwyH18D-4" value="HTTP" style="rounded=0;whiteSpace=wrap;html=1;fillColor=#fff2cc;strokeColor=#d6b656;verticalAlign=top;fontSize=12;spacing=1;fontStyle=1;fontColor=#000000;" parent="1" vertex="1">
                    <mxGeometry x="120" y="490" width="480" height="110" as="geometry"/>
                </mxCell>
                <mxCell id="AyxNyklTCNKdajwyH18D-5" value="IP" style="rounded=0;whiteSpace=wrap;html=1;fontSize=12;fillColor=default;strokeColor=#9673a6;spacing=1;fontColor=#000000;" parent="1" vertex="1">
                    <mxGeometry x="130" y="720" width="60" height="30" as="geometry"/>
                </mxCell>
                <mxCell id="AyxNyklTCNKdajwyH18D-6" value="IP White/Black List" style="rounded=0;whiteSpace=wrap;html=1;fontSize=12;fillColor=default;strokeColor=#9673a6;spacing=1;fontColor=#000000;" parent="1" vertex="1">
                    <mxGeometry x="200" y="720" width="120" height="30" as="geometry"/>
                </mxCell>
                <mxCell id="AyxNyklTCNKdajwyH18D-7" value="TLS" style="rounded=0;whiteSpace=wrap;html=1;fontSize=12;fillColor=default;strokeColor=#82b366;spacing=1;fontColor=#000000;" parent="1" vertex="1">
                    <mxGeometry x="260" y="640" width="50" height="30" as="geometry"/>
                </mxCell>
                <mxCell id="AyxNyklTCNKdajwyH18D-8" value="TCP" style="rounded=0;whiteSpace=wrap;html=1;fontSize=12;fillColor=default;strokeColor=#82b366;spacing=1;fontColor=#000000;" parent="1" vertex="1">
                    <mxGeometry x="130" y="640" width="60" height="30" as="geometry"/>
                </mxCell>
                <mxCell id="AyxNyklTCNKdajwyH18D-9" value="DTLS" style="rounded=0;whiteSpace=wrap;html=1;fontSize=12;fillColor=default;strokeColor=#82b366;spacing=1;fontColor=#000000;" parent="1" vertex="1">
                    <mxGeometry x="320" y="640" width="50" height="30" as="geometry"/>
                </mxCell>
                <mxCell id="AyxNyklTCNKdajwyH18D-10" value="UDP" style="rounded=0;whiteSpace=wrap;html=1;fontSize=12;fillColor=default;strokeColor=#82b366;spacing=1;fontColor=#000000;" parent="1" vertex="1">
                    <mxGeometry x="200" y="640" width="50" height="30" as="geometry"/>
                </mxCell>
                <mxCell id="AyxNyklTCNKdajwyH18D-11" value="QUIC" style="rounded=0;whiteSpace=wrap;html=1;fontSize=12;fillColor=default;strokeColor=#82b366;spacing=1;fontColor=#000000;" parent="1" vertex="1">
                    <mxGeometry x="380" y="640" width="50" height="30" as="geometry"/>
                </mxCell>
                <mxCell id="AyxNyklTCNKdajwyH18D-12" value="REST" style="rounded=0;whiteSpace=wrap;html=1;fillColor=#f8cecc;strokeColor=#b85450;verticalAlign=middle;fontSize=12;fontStyle=1;spacing=1;fontColor=#000000;" parent="1" vertex="1">
                    <mxGeometry x="130" y="360" width="70" height="30" as="geometry"/>
                </mxCell>
                <mxCell id="AyxNyklTCNKdajwyH18D-15" value="HTTP 1/2/3&lt;br style=&quot;font-size: 12px;&quot;&gt;Server" style="rounded=0;whiteSpace=wrap;html=1;fontSize=12;fillColor=default;strokeColor=#d6b656;spacing=1;fontColor=#000000;" parent="1" vertex="1">
                    <mxGeometry x="220" y="550" width="80" height="40" as="geometry"/>
                </mxCell>
                <mxCell id="AyxNyklTCNKdajwyH18D-16" value="Proxy" style="rounded=0;whiteSpace=wrap;html=1;fontSize=12;fillColor=default;strokeColor=#d6b656;spacing=1;fontColor=#000000;" parent="1" vertex="1">
                    <mxGeometry x="310" y="520" width="80" height="20" as="geometry"/>
                </mxCell>
                <mxCell id="AyxNyklTCNKdajwyH18D-17" value="Virtual Host" style="rounded=0;whiteSpace=wrap;html=1;fontSize=12;fillColor=default;strokeColor=#d6b656;spacing=1;fontColor=#000000;" parent="1" vertex="1">
                    <mxGeometry x="130" y="560" width="80" height="30" as="geometry"/>
                </mxCell>
                <mxCell id="AyxNyklTCNKdajwyH18D-18" value="Header&lt;br style=&quot;font-size: 12px;&quot;&gt;Manipulation" style="rounded=0;whiteSpace=wrap;html=1;fontSize=12;fillColor=default;strokeColor=#d6b656;spacing=1;fontColor=#000000;" parent="1" vertex="1">
                    <mxGeometry x="400" y="550" width="90" height="40" as="geometry"/>
                </mxCell>
                <mxCell id="AyxNyklTCNKdajwyH18D-19" value="Multi Server" style="rounded=0;whiteSpace=wrap;html=1;fontSize=12;fillColor=default;strokeColor=#d6b656;spacing=1;fontColor=#000000;" parent="1" vertex="1">
                    <mxGeometry x="130" y="520" width="80" height="30" as="geometry"/>
                </mxCell>
                <mxCell id="AyxNyklTCNKdajwyH18D-20" value="Fundamental" style="rounded=0;whiteSpace=wrap;html=1;fillColor=#dae8fc;strokeColor=#6c8ebf;verticalAlign=top;fontSize=12;spacing=1;fontStyle=1;fontColor=#000000;" parent="1" vertex="1">
                    <mxGeometry x="610" y="320" width="150" height="440" as="geometry"/>
                </mxCell>
                <mxCell id="AyxNyklTCNKdajwyH18D-22" value="File Server" style="rounded=0;whiteSpace=wrap;html=1;fontSize=12;fillColor=default;strokeColor=#d6b656;spacing=1;fontColor=#000000;" parent="1" vertex="1">
                    <mxGeometry x="220" y="520" width="80" height="20" as="geometry"/>
                </mxCell>
                <mxCell id="AyxNyklTCNKdajwyH18D-24" value="Socket options" style="rounded=0;whiteSpace=wrap;html=1;fontSize=12;fillColor=default;strokeColor=#9673a6;spacing=1;fontColor=#000000;" parent="1" vertex="1">
                    <mxGeometry x="330" y="720" width="100" height="30" as="geometry"/>
                </mxCell>
                <mxCell id="AyxNyklTCNKdajwyH18D-25" value="HTTP 1/2/3&lt;br style=&quot;font-size: 12px;&quot;&gt;Client" style="rounded=0;whiteSpace=wrap;html=1;fontSize=12;fillColor=default;strokeColor=#d6b656;spacing=1;fontColor=#000000;" parent="1" vertex="1">
                    <mxGeometry x="310" y="550" width="80" height="40" as="geometry"/>
                </mxCell>
                <mxCell id="AyxNyklTCNKdajwyH18D-26" value="Decoupled&lt;br style=&quot;font-size: 12px;&quot;&gt;Architecture" style="rounded=0;whiteSpace=wrap;html=1;fontSize=12;fillColor=default;strokeColor=#6c8ebf;spacing=1;fontColor=#000000;" parent="1" vertex="1">
                    <mxGeometry x="620" y="690" width="130" height="60" as="geometry"/>
                </mxCell>
                <mxCell id="AyxNyklTCNKdajwyH18D-27" value="Configuration&lt;br style=&quot;font-size: 12px;&quot;&gt;YAML/JSON" style="rounded=0;whiteSpace=wrap;html=1;fontSize=12;fillColor=default;strokeColor=#6c8ebf;spacing=1;fontColor=#000000;" parent="1" vertex="1">
                    <mxGeometry x="620" y="630" width="130" height="50" as="geometry"/>
                </mxCell>
                <mxCell id="AyxNyklTCNKdajwyH18D-28" value="Logging" style="rounded=0;whiteSpace=wrap;html=1;fontSize=12;fillColor=default;strokeColor=#6c8ebf;spacing=1;fontColor=#000000;" parent="1" vertex="1">
                    <mxGeometry x="620" y="590" width="130" height="30" as="geometry"/>
                </mxCell>
                <mxCell id="AyxNyklTCNKdajwyH18D-29" value="Error Handling" style="rounded=0;whiteSpace=wrap;html=1;fontSize=12;fillColor=default;strokeColor=#6c8ebf;spacing=1;fontColor=#000000;" parent="1" vertex="1">
                    <mxGeometry x="620" y="550" width="130" height="30" as="geometry"/>
                </mxCell>
                <mxCell id="AyxNyklTCNKdajwyH18D-30" value="Utilities&lt;br style=&quot;font-size: 12px;&quot;&gt;(io, hash, encryption, networking, ...)" style="rounded=0;whiteSpace=wrap;html=1;fontSize=12;fillColor=default;strokeColor=#6c8ebf;spacing=1;fontColor=#000000;" parent="1" vertex="1">
                    <mxGeometry x="620" y="480" width="130" height="60" as="geometry"/>
                </mxCell>
                <mxCell id="AyxNyklTCNKdajwyH18D-31" value="HealthCheck" style="rounded=0;whiteSpace=wrap;html=1;fontSize=12;fillColor=default;strokeColor=#d6b656;spacing=1;fontColor=#000000;" parent="1" vertex="1">
                    <mxGeometry x="500" y="520" width="90" height="30" as="geometry"/>
                </mxCell>
                <mxCell id="AyxNyklTCNKdajwyH18D-32" value="CircuitBreaker" style="rounded=0;whiteSpace=wrap;html=1;fontSize=12;fillColor=default;strokeColor=#d6b656;spacing=1;fontColor=#000000;" parent="1" vertex="1">
                    <mxGeometry x="500" y="560" width="90" height="30" as="geometry"/>
                </mxCell>
                <mxCell id="AyxNyklTCNKdajwyH18D-33" value="Authentication" style="rounded=0;whiteSpace=wrap;html=1;fontSize=12;fillColor=default;fontColor=#000000;strokeColor=#666666;spacing=1;" parent="1" vertex="1">
                    <mxGeometry x="320" y="400" width="90" height="30" as="geometry"/>
                </mxCell>
                <mxCell id="AyxNyklTCNKdajwyH18D-34" value="Authorization" style="rounded=0;whiteSpace=wrap;html=1;fontSize=12;fillColor=default;fontColor=#000000;strokeColor=#666666;spacing=1;" parent="1" vertex="1">
                    <mxGeometry x="320" y="440" width="90" height="30" as="geometry"/>
                </mxCell>
                <mxCell id="AyxNyklTCNKdajwyH18D-35" value="Reverse Proxy" style="rounded=0;whiteSpace=wrap;html=1;fontSize=12;fillColor=default;fontColor=#000000;strokeColor=#666666;spacing=1;" parent="1" vertex="1">
                    <mxGeometry x="210" y="440" width="100" height="30" as="geometry"/>
                </mxCell>
                <mxCell id="AyxNyklTCNKdajwyH18D-36" value="API Aggregation" style="rounded=0;whiteSpace=wrap;html=1;fontSize=12;fillColor=default;fontColor=#000000;strokeColor=#666666;spacing=1;" parent="1" vertex="1">
                    <mxGeometry x="210" y="400" width="100" height="30" as="geometry"/>
                </mxCell>
                <mxCell id="AyxNyklTCNKdajwyH18D-37" value="Protocol Trans." style="rounded=0;whiteSpace=wrap;html=1;fontSize=12;fillColor=default;fontColor=#000000;strokeColor=#666666;spacing=1;" parent="1" vertex="1">
                    <mxGeometry x="210" y="360" width="100" height="30" as="geometry"/>
                </mxCell>
                <mxCell id="AyxNyklTCNKdajwyH18D-38" value="GraphQL" style="rounded=0;whiteSpace=wrap;html=1;fillColor=#f8cecc;strokeColor=#b85450;verticalAlign=middle;fontSize=12;fontStyle=1;spacing=1;fontColor=#000000;" parent="1" vertex="1">
                    <mxGeometry x="130" y="400" width="70" height="30" as="geometry"/>
                </mxCell>
                <mxCell id="AyxNyklTCNKdajwyH18D-39" value="gRPC" style="rounded=0;whiteSpace=wrap;html=1;fillColor=#f8cecc;strokeColor=#b85450;verticalAlign=middle;fontSize=12;fontStyle=1;spacing=1;fontColor=#000000;" parent="1" vertex="1">
                    <mxGeometry x="130" y="440" width="70" height="30" as="geometry"/>
                </mxCell>
                <mxCell id="AyxNyklTCNKdajwyH18D-40" value="Metrics" style="rounded=0;whiteSpace=wrap;html=1;fontSize=12;fillColor=default;fontColor=#000000;strokeColor=#666666;spacing=1;" parent="1" vertex="1">
                    <mxGeometry x="530" y="440" width="60" height="30" as="geometry"/>
                </mxCell>
                <mxCell id="AyxNyklTCNKdajwyH18D-41" value="Tracing" style="rounded=0;whiteSpace=wrap;html=1;fontSize=12;fillColor=default;fontColor=#000000;strokeColor=#666666;spacing=1;" parent="1" vertex="1">
                    <mxGeometry x="530" y="400" width="60" height="30" as="geometry"/>
                </mxCell>
                <mxCell id="AyxNyklTCNKdajwyH18D-42" value="Extension Mechanism" style="rounded=0;whiteSpace=wrap;html=1;fontSize=12;fillColor=default;strokeColor=#6c8ebf;spacing=1;fontColor=#000000;" parent="1" vertex="1">
                    <mxGeometry x="620" y="440" width="130" height="30" as="geometry"/>
                </mxCell>
                <mxCell id="AyxNyklTCNKdajwyH18D-43" value="Web Security" style="rounded=0;whiteSpace=wrap;html=1;fontSize=12;fillColor=default;fontColor=#000000;strokeColor=#666666;spacing=1;" parent="1" vertex="1">
                    <mxGeometry x="320" y="360" width="90" height="30" as="geometry"/>
                </mxCell>
                <mxCell id="AyxNyklTCNKdajwyH18D-44" value="Session Management" style="rounded=0;whiteSpace=wrap;html=1;fontSize=12;fillColor=default;fontColor=#000000;strokeColor=#666666;spacing=1;" parent="1" vertex="1">
                    <mxGeometry x="420" y="430" width="100" height="40" as="geometry"/>
                </mxCell>
                <mxCell id="AyxNyklTCNKdajwyH18D-45" value="Resilience&lt;br style=&quot;font-size: 12px;&quot;&gt;(Retry,Timeout, Throttle, ...)" style="rounded=0;whiteSpace=wrap;html=1;fontSize=12;fillColor=default;fontColor=#000000;strokeColor=#666666;spacing=1;" parent="1" vertex="1">
                    <mxGeometry x="420" y="360" width="100" height="60" as="geometry"/>
                </mxCell>
                <mxCell id="AyxNyklTCNKdajwyH18D-50" value="L4 Proxy" style="rounded=0;whiteSpace=wrap;html=1;fontSize=12;fillColor=default;strokeColor=#82b366;spacing=1;fontColor=#000000;" parent="1" vertex="1">
                    <mxGeometry x="440" y="640" width="70" height="30" as="geometry"/>
                </mxCell>
                <mxCell id="AyxNyklTCNKdajwyH18D-51" value="Mirrorling" style="rounded=0;whiteSpace=wrap;html=1;fontSize=12;fillColor=default;strokeColor=#82b366;spacing=1;fontColor=#000000;" parent="1" vertex="1">
                    <mxGeometry x="520" y="640" width="70" height="30" as="geometry"/>
                </mxCell>
                <mxCell id="AyxNyklTCNKdajwyH18D-52" value="Dump" style="rounded=0;whiteSpace=wrap;html=1;fontSize=12;fillColor=default;strokeColor=#9673a6;spacing=1;fontColor=#000000;" parent="1" vertex="1">
                    <mxGeometry x="440" y="720" width="70" height="30" as="geometry"/>
                </mxCell>
                <mxCell id="AyxNyklTCNKdajwyH18D-53" value="Mirrorling" style="rounded=0;whiteSpace=wrap;html=1;fontSize=12;fillColor=default;strokeColor=#9673a6;spacing=1;fontColor=#000000;" parent="1" vertex="1">
                    <mxGeometry x="520" y="720" width="70" height="30" as="geometry"/>
                </mxCell>
                <mxCell id="2" value="Logging" style="rounded=0;whiteSpace=wrap;html=1;fontSize=12;fillColor=default;fontColor=#000000;strokeColor=#666666;spacing=1;" vertex="1" parent="1">
                    <mxGeometry x="530" y="360" width="60" height="30" as="geometry"/>
                </mxCell>
                <mxCell id="3" value="Size Limiting" style="rounded=0;whiteSpace=wrap;html=1;fontSize=12;fillColor=default;strokeColor=#d6b656;spacing=1;fontColor=#000000;" vertex="1" parent="1">
                    <mxGeometry x="400" y="520" width="90" height="20" as="geometry"/>
                </mxCell>
            </root>
        </mxGraphModel>
    </diagram>
</mxfile>